#!OML:ASF X:\für Bonn\!DataBase\2005_08_11_Bastian_Final\c3d\Bastian.ASF
:FULLY-SPECIFIED
:DEGREES
142
root -2.49531 17.0798 -17.4412 143.39 11.0941 -183.628
lowerback 25.1075 -1.23269 -5.72617
upperback 14.421 1.4169 -8.06157
thorax 2.4297 2.64202 -5.81633
lowerneck -2.72178 -4.89682 -18.6497
upperneck 0.0587562 -6.12638 20.3106
head 1.75357 -2.8043 9.27769
rclavicle 2.84262e-014 1.17681e-013
rhumerus -72.9099 12.784 -97.1206
rradius 106.894
rwrist 15.9411
rhand -20.4882 15.2429
rfingers 7.12502
rthumb 5.86853 -14.6558
lclavicle 2.84262e-014 1.17681e-013
lhumerus -1.1417 -36.3257 81.9753
lradius 115.999
lwrist 28.2323
lhand -5.5933 -13.2376
lfingers 7.12502
lthumb 20.2233 15.7297
rfemur 21.3458 3.16142 24.0494
rtibia 35.0427
rfoot -192.251 -181.842
rtoes 6.84097
lfemur -44.7071 19.1334 -6.58708
ltibia 98.0247
lfoot 9.92628 -7.00707
ltoes -51.3045
143
root -2.54291 17.0943 -17.4564 144.242 11.4983 -183.504
lowerback 24.1896 -1.38452 -5.40944
upperback 14.0566 1.03582 -7.88037
thorax 2.38862 2.32165 -5.67881
lowerneck -2.82449 -4.63365 -18.4643
upperneck 0.0904806 -5.75357 19.9588
head 1.68445 -2.62231 9.14297
rclavicle -3.08116e-014 3.02153e-014
rhumerus -73.7515 12.4023 -96.8737
rradius 107.056
rwrist 16.1678
rhand -20.3074 15.5342
rfingers 7.12502
rthumb 6.04305 -14.3596
lclavicle -3.08116e-014 3.02153e-014
lhumerus -2.08357 -36.2581 82.6738
lradius 116.255
lwrist 27.8352
lhand -5.59089 -13.1658
lfingers 7.12502
lthumb 20.2256 15.8012
rfemur 20.5312 3.36915 24.0939
rtibia 34.9317
rfoot -192.207 -181.713
rtoes 6.77597
lfemur -41.5853 18.0989 -5.98844
ltibia 98.0306
lfoot 10.565 -6.93573
ltoes -51.3829
144
root -2.58475 17.1615 -17.4636 145.084 11.9444 -183.367
lowerback 23.2627 -1.53362 -5.09448
upperback 13.6928 0.66322 -7.67552
thorax 2.36306 2.00876 -5.52329
lowerneck -2.93981 -4.35809 -18.2876
upperneck 0.137356 -5.36468 19.6013
head 1.62092 -2.43204 9.00801
rclavicle -2.78299e-015 -3.18055e-015
rhumerus -74.3328 12.193 -96.6504
rradius 107.179
rwrist 16.2743
rhand -20.1321 15.6571
rfingers 7.12502
rthumb 6.21229 -14.2318
lclavicle -2.78299e-015 -3.18055e-015
lhumerus -2.93838 -36.1864 83.3006
lradius 116.525
lwrist 27.5112
lhand -5.57677 -13.1014
lfingers 7.12502
lthumb 20.2392 15.8642
rfemur 19.7782 3.56631 24.1538
rtibia 34.7576
rfoot -192.176 -181.55
rtoes 6.70352
lfemur -38.1171 17.0893 -5.50359
ltibia 97.5171
lfoot 11.0833 -6.79858
ltoes -51.7987
145
root -2.63375 17.1743 -17.4825 145.905 12.385 -183.194
lowerback 22.3557 -1.68473 -4.75227
upperback 13.3318 0.300964 -7.45149
thorax 2.3412 1.70897 -5.373
lowerneck -2.98145 -4.07906 -18.1243
upperneck 0.122066 -4.97648 19.2501
head 1.53031 -2.24584 8.8784
rclavicle 2.72335e-014 -3.97569e-014
rhumerus -74.685 12.0316 -96.4901
rradius 107.251
rwrist 16.3038
rhand -19.9657 15.6088
rfingers 7.12502
rthumb 6.37296 -14.2753
lclavicle 2.72335e-014 -3.97569e-014
lhumerus -3.67852 -36.1728 83.8607
lradius 116.818
lwrist 27.29
lhand -5.53119 -13.0547
lfingers 7.12502
lthumb 20.283 15.9063
rfemur 18.9687 3.74767 24.231
rtibia 34.7084
rfoot -192.186 -181.393
rtoes 6.53966
lfemur -35.1198 15.9771 -5.13659
ltibia 97.1589
lfoot 11.6052 -6.68142
ltoes -52.4158
146
root -2.6825 17.1873 -17.5021 146.726 12.8443 -183.009
lowerback 21.4343 -1.82869 -4.40008
upperback 12.9662 -0.043258 -7.22423
thorax 2.33227 1.42423 -5.23619
lowerneck -3.0032 -3.79756 -17.9405
upperneck 0.121091 -4.59119 18.9068
head 1.443 -2.06138 8.74729
rclavicle 2.60408e-014 8.26944e-014
rhumerus -74.8603 11.9154 -96.3888
rradius 107.297
rwrist 16.2076
rhand -19.7213 15.4704
rfingers 7.12502
rthumb 6.60886 -14.4065
lclavicle 2.60408e-014 8.26944e-014
lhumerus -4.28932 -36.2471 84.3165
lradius 117.146
lwrist 27.1929
lhand -5.52749 -12.9811
lfingers 7.12502
lthumb 20.2865 15.9795
rfemur 18.1731 3.91537 24.3029
rtibia 34.6444
rfoot -192.182 -181.185
rtoes 6.41974
lfemur -32.1939 14.8468 -4.89456
ltibia 96.6609
lfoot 11.8927 -6.50631
ltoes -53.3229
147
root -2.7304 17.1993 -17.5218 147.54 13.3125 -182.785
lowerback 20.5023 -1.97253 -4.02348
upperback 12.6178 -0.369867 -6.98754
thorax 2.35809 1.15739 -5.114
lowerneck -3.01186 -3.51916 -17.762
upperneck 0.109034 -4.21164 18.5857
head 1.35455 -1.87961 8.62388
rclavicle 2.48481e-015 -1.43125e-014
rhumerus -74.9529 11.8418 -96.3406
rradius 107.404
rwrist 16.032
rhand -19.542 15.2957
rfingers 7.12502
rthumb 6.78194 -14.5757
lclavicle 2.48481e-015 -1.43125e-014
lhumerus -4.76931 -36.3945 84.6708
lradius 117.496
lwrist 27.161
lhand -5.50425 -12.8872
lfingers 7.12502
lthumb 20.3089 16.071
rfemur 17.2789 4.07474 24.4179
rtibia 34.833
rfoot -192.327 -180.993
rtoes 6.30837
lfemur -29.3201 13.6919 -4.73669
ltibia 96.0819
lfoot 11.87 -6.08668
ltoes -54.1374
148
root -2.78073 17.2111 -17.5393 148.343 13.8241 -182.58
lowerback 19.6015 -2.0957 -3.64689
upperback 12.2531 -0.669125 -6.74379
thorax 2.36071 0.908927 -4.99755
lowerneck -2.94457 -3.23399 -17.5946
upperneck 0.0460479 -3.82996 18.2701
head 1.24087 -1.70011 8.50461
rclavicle -7.95139e-015 -7.4743e-014
rhumerus -75.0635 11.8223 -96.3508
rradius 107.622
rwrist 15.767
rhand -19.3768 15.0969
rfingers 7.12502
rthumb 6.94143 -14.7693
lclavicle -7.95139e-015 -7.4743e-014
lhumerus -5.19209 -36.607 84.9937
lradius 117.795
lwrist 27.1132
lhand -5.50632 -12.9098
lfingers 7.12502
lthumb 20.3069 16.0486
rfemur 16.3813 4.27614 24.5192
rtibia 35.0111
rfoot -192.438 -180.766
rtoes 6.21961
lfemur -26.482 12.5813 -4.72462
ltibia 95.3516
lfoot 11.5804 -5.32039
ltoes -54.7965
149
root -2.83318 17.2231 -17.5533 149.131 14.4092 -182.403
lowerback 18.7494 -2.17368 -3.27237
upperback 11.8736 -0.906389 -6.49004
thorax 2.33524 0.69715 -4.88695
lowerneck -2.81346 -2.95983 -17.404
upperneck -0.0627868 -3.46992 17.9429
head 1.10875 -1.53384 8.37632
rclavicle 5.43676e-014 1.03368e-013
rhumerus -75.0835 11.8123 -96.4024
rradius 107.817
rwrist 15.4307
rhand -19.243 14.9592
rfingers 7.12502
rthumb 7.07055 -14.9027
lclavicle 5.43676e-014 1.03368e-013
lhumerus -5.51509 -36.9084 85.276
lradius 118.071
lwrist 27.0784
lhand -5.58188 -12.9266
lfingers 7.12502
lthumb 20.2343 16.0395
rfemur 15.4763 4.52009 24.6054
rtibia 35.1729
rfoot -192.5 -180.506
rtoes 6.04202
lfemur -23.6637 11.5256 -4.83755
ltibia 94.4717
lfoot 11.099 -4.11115
ltoes -55.0677
150
root -2.88427 17.2346 -17.5664 149.894 14.9897 -182.222
lowerback 17.8894 -2.23844 -2.9292
upperback 11.5304 -1.11011 -6.23716
thorax 2.36531 0.511267 -4.77068
lowerneck -2.67334 -2.68653 -17.1871
upperneck -0.204718 -3.10864 17.6688
head 0.968509 -1.36497 8.26049
rclavicle 2.9768e-014 3.81667e-014
rhumerus -74.9672 11.7898 -96.5329
rradius 107.95
rwrist 15.0876
rhand -19.167 14.892
rfingers 7.12502
rthumb 7.14399 -14.9674
lclavicle 2.9768e-014 3.81667e-014
lhumerus -5.73236 -37.2611 85.4799
lradius 118.342
lwrist 27.0232
lhand -5.6055 -12.9457
lfingers 7.12502
lthumb 20.2116 16.0228
rfemur 14.6015 4.79019 24.7045
rtibia 35.3232
rfoot -192.539 -180.235
rtoes 6.06545
lfemur -20.9131 10.4963 -5.05851
ltibia 93.4881
lfoot 10.4362 -2.67858
ltoes -55.2829
151
root -2.93196 17.2464 -17.5795 150.656 15.5022 -181.985
lowerback 16.9693 -2.32701 -2.59696
upperback 11.2577 -1.31835 -5.99684
thorax 2.51105 0.335524 -4.66734
lowerneck -2.58636 -2.43115 -16.9118
upperneck -0.376156 -2.76035 17.4326
head 0.833316 -1.19797 8.1452
rclavicle -4.07509e-015 4.77083e-014
rhumerus -74.6931 11.7735 -96.7477
rradius 108.046
rwrist 14.7785
rhand -19.1496 14.867
rfingers 7.12502
rthumb 7.16079 -14.9919
lclavicle -4.07509e-015 4.77083e-014
lhumerus -5.71772 -37.6836 85.4687
lradius 118.61
lwrist 26.9882
lhand -5.6737 -12.9649
lfingers 7.12502
lthumb 20.146 16.0105
rfemur 13.7554 5.03441 24.86
rtibia 35.4672
rfoot -192.58 -180.016
rtoes 5.99084
lfemur -18.3007 9.45718 -5.33867
ltibia 92.4455
lfoot 9.7411 -1.02912
ltoes -55.275
